<?xml version="1.0" encoding="utf-8"?>
<!-- Svg Vector Icons : http://www.onlinewebfonts.com/icon -->
<!DOCTYPE svg PUBLIC "-//W3C//DTD SVG 1.1//EN" "http://www.w3.org/Graphics/SVG/1.1/DTD/svg11.dtd">
<svg version="1.1" xmlns="http://www.w3.org/2000/svg" xmlns:xlink="http://www.w3.org/1999/xlink" x="0px" y="0px" viewBox="0 0 1000 1000" enable-background="new 0 0 1000 1000" xml:space="preserve">
<metadata> Svg Vector Icons : http://www.onlinewebfonts.com/icon </metadata>
<g><path d="M793.3,156.8V137c0-70-62.4-127-139.1-127H345.8c-76.7,0-139.1,57-139.1,127v19.9H28.9v55.1h942.1v-55.1H793.3z M259.8,137c0-40.7,38.6-73.8,86-73.8h308.3c47.4,0,86,33.1,86,73.8v19.9H259.8V137z"/><path d="M827.8,863c0,40.7-38.7,73.8-86.3,73.8H261.4c-47.6,0-86.3-33.1-86.3-73.8V279h-53.2V863c0,70,62.6,127,139.5,127h480.1c76.9,0,139.5-57,139.5-127V279h-53.2V863z"/><path d="M611.6,279h55.1v518.3h-55.1V279z"/><path d="M473.9,279H529v518.3h-55.1V279z"/><path d="M336.3,279h55.1v518.3h-55.1V279z"/></g>
</svg>